<svg id="Icons"
    xmlns="http://www.w3.org/2000/svg" viewBox="0 0 66 66">
    <defs>
        <style>.cls-1{fill:#2371a9;}.cls-2{fill:#2a6894;}.cls-3{opacity:0.15;}.cls-4{fill:#fffcf2;}.cls-5{opacity:0.15;}.cls-6{fill:#344e5f;}</style>
    </defs>
    <title>document</title>
    <g id="Document">
        <g id="Circle_Shadow" data-name="Circle Shadow">
            <circle class="cls-1" cx="33" cy="34" r="31"/>
        </g>
        <g id="Circle">
            <circle class="cls-2" cx="33" cy="32" r="31"/>
        </g>
        <path id="Long_Shadow" data-name="Long Shadow" class="cls-3" d="M19.56,47.41,35.08,62.92A31,31,0,0,0,63,40L43,20Z"/>
        <path id="Document-2" data-name="Document" class="cls-4" d="M21,16a2,2,0,0,0-2,2V46a2,2,0,0,0,2,2H45a2,2,0,0,0,2-2V24l-8-8Z"/>
        <g id="Shading" class="cls-5">
            <path class="cls-6" d="M39,16v8h8Zm-4,6H24v2H35ZM24,30H43V28H24Zm0,6H43V34H24Zm0,6H39V40H24Z"/>
        </g>
    </g>
</svg>