<svg class="bd-placeholder-img me-2" width="20" height="20" id="Icons" xmlns="http://www.w3.org/2000/svg" viewBox="0 0 66 66"><defs><style>.cls-1{fill:#349f59;}.cls-2{fill:#3dbb69;}.cls-3{opacity:0.15;}.cls-4{fill:#fffcf2;}</style></defs><title>lightning</title><g id="Lightning"><g id="Circle_Shadow" data-name="Circle Shadow"><circle class="cls-1" cx="33" cy="34" r="31"/></g><g id="Circle"><circle class="cls-2" cx="33" cy="32" r="31"/></g><g id="Long_Shadow" data-name="Long Shadow" class="cls-3"><polygon points="30.18 43.59 30.18 38.25 25.31 38.72 30.18 43.59"/><polygon points="28.74 27.22 25.31 27.72 28.74 31.15 28.74 27.22"/><path d="M39.7,16.28l-9,8.87L30.3,47.71,43.69,61.11A31.06,31.06,0,0,0,63.05,39.63Z"/></g><g id="Lightning-2" data-name="Lightning"><path class="cls-4" d="M40.87,25.47A1,1,0,0,0,41,25a1,1,0,0,0-1-1H37.44l2.49-6.65h0A1,1,0,0,0,40,17a1,1,0,0,0-1-1H30a1,1,0,0,0-.93.63h0l-4,10h0v0h0A1,1,0,0,0,26,28h2.57l-3.51,9.66h0A1,1,0,0,0,25,38a1,1,0,0,0,1,1h4v8a1,1,0,0,0,1,1,1,1,0,0,0,.87-.53h0l6-11h0A1,1,0,0,0,38,36a1,1,0,0,0-1-1H35.68l5.19-9.52Z"/></g></g></svg>