<svg xmlns="http://www.w3.org/2000/svg" viewBox="0 0 64 64"><defs><style>.cls-1{fill:#f0efe3;}.cls-2{fill:#bdab9d;}.cls-3{opacity:0.15;}.cls-4{fill:#5f4e56;}.cls-5{isolation:isolate;}</style></defs><title>microphone</title><g id="Microphone"><g id="Cream"><path class="cls-1" d="M32,2A10,10,0,0,0,22,12V32a10,10,0,0,0,20,0V12A10,10,0,0,0,32,2Z"/></g><g id="Brown"><path class="cls-2" d="M22,26v6a10,10,0,0,0,20,0V26Z"/></g><g id="Details" class="cls-3"><path class="cls-4" d="M23,12h3a1,1,0,0,0,0-2H23a1,1,0,0,0,0,2ZM37,32H32a1,1,0,1,0,0,2h5a1,1,0,1,0,0-2ZM40,7H36a1,1,0,0,0,0,2h4a1,1,0,0,0,0-2ZM30,19H22a1,1,0,1,0,0,2h8a1,1,0,1,0,0-2Zm3-3h2a1,1,0,1,0,0-2H33a1,1,0,1,0,0,2ZM28,29a1,1,0,1,0,1,1A1,1,0,0,0,28,29Z"/></g><g id="Outline"><path class="cls-4" d="M52,32V26a2,2,0,0,0-4,0v6a16,16,0,1,1-32,0V26a2,2,0,0,0-4,0v6A20,20,0,0,0,30,51.9V60H20a2,2,0,0,0,0,4H44a2,2,0,1,0,0-4H34V51.9A20,20,0,0,0,52,32ZM32,44A12,12,0,0,0,44,32V12a12,12,0,1,0-24,0V32A12,12,0,0,0,32,44ZM24,12a8,8,0,1,1,16,0V25H24Zm0,15H40v5a8,8,0,1,1-16,0Z"/></g></g></svg>