<svg id="Icons" xmlns="http://www.w3.org/2000/svg" viewBox="0 0 66 66"><defs><style>.cls-1{fill:#bccee3;}.cls-2{fill:#b3d1f3;}.cls-3{opacity:0.05;}.cls-4{fill:#ede3c0;}.cls-5{fill:#344e5f;}.cls-6{fill:#edc03d;}</style></defs><title>pencil</title><g id="Pencil"><g id="Circle_Shadow" data-name="Circle Shadow"><circle class="cls-1" cx="33" cy="34" r="31"/></g><g id="Circle"><circle class="cls-2" cx="33" cy="32" r="31"/></g><path id="Long_Shadow" data-name="Long Shadow" class="cls-3" d="M64,33.3,47.81,17.14,17,48,32,63l1,0A31,31,0,0,0,64,33.3Z"/><g id="Pencil-2" data-name="Pencil"><path class="cls-4" d="M17,48s6.68-1.48,8.6-3L20,39.4C18.48,41.32,17,48,17,48ZM40,19.38,21.38,38,27,43.62,45.62,25Z"/></g><g id="Lines"><path class="cls-5" d="M20,39.38,25.62,45,27,43.62,21.38,38ZM41.38,18,40,19.38,45.62,25,47,23.62Z"/></g><g id="Pencil-3" data-name="Pencil"><path class="cls-6" d="M45,16a4,4,0,0,0-2.83,1.17l-.79.79L47,23.62l.79-.79A4,4,0,0,0,45,16Z"/></g></g></svg>