<svg id="icons" xmlns="http://www.w3.org/2000/svg" viewBox="0 0 64 64"><title>retro-microphone</title><g id="retro-microphone"><rect x="29.62" y="57" width="5" height="6" fill="#d6cac0"/><path d="M39,51c0,3.87-3.13,6-7,6s-7-2.13-7-6" fill="#bdb2aa"/><path d="M51,34A18,18,0,0,1,33,52H31A18,18,0,0,1,13,34" fill="none" stroke="#544f4b" stroke-miterlimit="10" stroke-width="2"/><path d="M47,25v8A15,15,0,0,1,32,48h0A15,15,0,0,1,17,33V25" fill="#f0ebe7"/><path d="M17,25V17A15,15,0,0,1,32,2h0A15,15,0,0,1,47,17v8" fill="#7ccacb"/><path d="M21,25V17a11,11,0,0,1,22,0v8" fill="#5ca1a1"/><path d="M33.63,46a13,13,0,0,1-13-13V23h26V33A13,13,0,0,1,33.63,46Z" fill="#ddd2ca"/><rect x="16.62" y="21" width="30" height="4" fill="#fa8a8a"/><rect x="16.62" y="23" width="30" height="2" fill="#dd7a7a"/><rect x="17" y="2" width="30" height="46" rx="15" ry="15" fill="none" stroke="#544f4b" stroke-miterlimit="10" stroke-width="2"/><line x1="17" y1="25" x2="47" y2="25" fill="none" stroke="#544f4b" stroke-miterlimit="10" stroke-width="2"/><line x1="30" y1="63" x2="30" y2="57" fill="none" stroke="#544f4b" stroke-miterlimit="10" stroke-width="2"/><line x1="34" y1="63" x2="34" y2="57" fill="none" stroke="#544f4b" stroke-miterlimit="10" stroke-width="2"/><line x1="17" y1="21" x2="47" y2="21" fill="none" stroke="#544f4b" stroke-miterlimit="10" stroke-width="2"/><line x1="8" y1="34" x2="56" y2="34" fill="none" stroke="#544f4b" stroke-miterlimit="10" stroke-width="2"/><line x1="31" y1="5" x2="33" y2="5" fill="none" stroke="#544f4b" stroke-miterlimit="10" stroke-width="2"/><line x1="33" y1="7" x2="35" y2="7" fill="none" stroke="#544f4b" stroke-miterlimit="10" stroke-width="2"/><line x1="31" y1="9" x2="33" y2="9" fill="none" stroke="#544f4b" stroke-miterlimit="10" stroke-width="2"/><line x1="29" y1="7" x2="31" y2="7" fill="none" stroke="#544f4b" stroke-miterlimit="10" stroke-width="2"/><line x1="35" y1="9" x2="37" y2="9" fill="none" stroke="#544f4b" stroke-miterlimit="10" stroke-width="2"/><line x1="35" y1="5" x2="37" y2="5" fill="none" stroke="#544f4b" stroke-miterlimit="10" stroke-width="2"/><line x1="37" y1="7" x2="39" y2="7" fill="none" stroke="#544f4b" stroke-miterlimit="10" stroke-width="2"/><line x1="39" y1="9" x2="41" y2="9" fill="none" stroke="#544f4b" stroke-miterlimit="10" stroke-width="2"/><line x1="29" y1="5" x2="27" y2="5" fill="none" stroke="#544f4b" stroke-miterlimit="10" stroke-width="2"/><line x1="27" y1="7" x2="25" y2="7" fill="none" stroke="#544f4b" stroke-miterlimit="10" stroke-width="2"/><line x1="29" y1="9" x2="27" y2="9" fill="none" stroke="#544f4b" stroke-miterlimit="10" stroke-width="2"/><line x1="25" y1="9" x2="23" y2="9" fill="none" stroke="#544f4b" stroke-miterlimit="10" stroke-width="2"/><line x1="41" y1="7" x2="43" y2="7" fill="none" stroke="#544f4b" stroke-miterlimit="10" stroke-width="2"/><line x1="21" y1="7" x2="23" y2="7" fill="none" stroke="#544f4b" stroke-miterlimit="10" stroke-width="2"/><line x1="23" y1="5" x2="25" y2="5" fill="none" stroke="#544f4b" stroke-miterlimit="10" stroke-width="2"/><line x1="29" y1="3" x2="31" y2="3" fill="none" stroke="#544f4b" stroke-miterlimit="10" stroke-width="2"/><line x1="33" y1="3" x2="35" y2="3" fill="none" stroke="#544f4b" stroke-miterlimit="10" stroke-width="2"/><line x1="39" y1="5" x2="41" y2="5" fill="none" stroke="#544f4b" stroke-miterlimit="10" stroke-width="2"/><line x1="25" y1="11" x2="27" y2="11" fill="none" stroke="#544f4b" stroke-miterlimit="10" stroke-width="2"/><line x1="29" y1="11" x2="31" y2="11" fill="none" stroke="#544f4b" stroke-miterlimit="10" stroke-width="2"/><line x1="33" y1="11" x2="35" y2="11" fill="none" stroke="#544f4b" stroke-miterlimit="10" stroke-width="2"/><line x1="37" y1="11" x2="39" y2="11" fill="none" stroke="#544f4b" stroke-miterlimit="10" stroke-width="2"/><line x1="41" y1="11" x2="43" y2="11" fill="none" stroke="#544f4b" stroke-miterlimit="10" stroke-width="2"/><line x1="23" y1="11" x2="21" y2="11" fill="none" stroke="#544f4b" stroke-miterlimit="10" stroke-width="2"/><line x1="21" y1="9" x2="19" y2="9" fill="none" stroke="#544f4b" stroke-miterlimit="10" stroke-width="2"/><line x1="19" y1="13" x2="21" y2="13" fill="none" stroke="#544f4b" stroke-miterlimit="10" stroke-width="2"/><line x1="23" y1="13" x2="25" y2="13" fill="none" stroke="#544f4b" stroke-miterlimit="10" stroke-width="2"/><line x1="27" y1="13" x2="29" y2="13" fill="none" stroke="#544f4b" stroke-miterlimit="10" stroke-width="2"/><line x1="31" y1="13" x2="33" y2="13" fill="none" stroke="#544f4b" stroke-miterlimit="10" stroke-width="2"/><line x1="35" y1="13" x2="37" y2="13" fill="none" stroke="#544f4b" stroke-miterlimit="10" stroke-width="2"/><line x1="39" y1="13" x2="41" y2="13" fill="none" stroke="#544f4b" stroke-miterlimit="10" stroke-width="2"/><line x1="43" y1="13" x2="45" y2="13" fill="none" stroke="#544f4b" stroke-miterlimit="10" stroke-width="2"/><line x1="17" y1="15" x2="19" y2="15" fill="none" stroke="#544f4b" stroke-miterlimit="10" stroke-width="2"/><line x1="21" y1="15" x2="23" y2="15" fill="none" stroke="#544f4b" stroke-miterlimit="10" stroke-width="2"/><line x1="25" y1="15" x2="27" y2="15" fill="none" stroke="#544f4b" stroke-miterlimit="10" stroke-width="2"/><line x1="29" y1="15" x2="31" y2="15" fill="none" stroke="#544f4b" stroke-miterlimit="10" stroke-width="2"/><line x1="33" y1="15" x2="35" y2="15" fill="none" stroke="#544f4b" stroke-miterlimit="10" stroke-width="2"/><line x1="37" y1="15" x2="39" y2="15" fill="none" stroke="#544f4b" stroke-miterlimit="10" stroke-width="2"/><line x1="41" y1="15" x2="43" y2="15" fill="none" stroke="#544f4b" stroke-miterlimit="10" stroke-width="2"/><line x1="45" y1="15" x2="47" y2="15" fill="none" stroke="#544f4b" stroke-miterlimit="10" stroke-width="2"/><line x1="43" y1="9" x2="45" y2="9" fill="none" stroke="#544f4b" stroke-miterlimit="10" stroke-width="2"/><line x1="19" y1="17" x2="21" y2="17" fill="none" stroke="#544f4b" stroke-miterlimit="10" stroke-width="2"/><line x1="23" y1="17" x2="25" y2="17" fill="none" stroke="#544f4b" stroke-miterlimit="10" stroke-width="2"/><line x1="27" y1="17" x2="29" y2="17" fill="none" stroke="#544f4b" stroke-miterlimit="10" stroke-width="2"/><line x1="31" y1="17" x2="33" y2="17" fill="none" stroke="#544f4b" stroke-miterlimit="10" stroke-width="2"/><line x1="35" y1="17" x2="37" y2="17" fill="none" stroke="#544f4b" stroke-miterlimit="10" stroke-width="2"/><line x1="39" y1="17" x2="41" y2="17" fill="none" stroke="#544f4b" stroke-miterlimit="10" stroke-width="2"/><line x1="43" y1="17" x2="45" y2="17" fill="none" stroke="#544f4b" stroke-miterlimit="10" stroke-width="2"/><line x1="17" y1="19" x2="19" y2="19" fill="none" stroke="#544f4b" stroke-miterlimit="10" stroke-width="2"/><line x1="21" y1="19" x2="23" y2="19" fill="none" stroke="#544f4b" stroke-miterlimit="10" stroke-width="2"/><line x1="25" y1="19" x2="27" y2="19" fill="none" stroke="#544f4b" stroke-miterlimit="10" stroke-width="2"/><line x1="29" y1="19" x2="31" y2="19" fill="none" stroke="#544f4b" stroke-miterlimit="10" stroke-width="2"/><line x1="33" y1="19" x2="35" y2="19" fill="none" stroke="#544f4b" stroke-miterlimit="10" stroke-width="2"/><line x1="37" y1="19" x2="39" y2="19" fill="none" stroke="#544f4b" stroke-miterlimit="10" stroke-width="2"/><line x1="41" y1="19" x2="43" y2="19" fill="none" stroke="#544f4b" stroke-miterlimit="10" stroke-width="2"/><line x1="45" y1="19" x2="47" y2="19" fill="none" stroke="#544f4b" stroke-miterlimit="10" stroke-width="2"/><polyline points="13 34 13 30 16 30" fill="none" stroke="#544f4b" stroke-miterlimit="10" stroke-width="2"/><polyline points="51 34 51 30 48 30" fill="none" stroke="#544f4b" stroke-miterlimit="10" stroke-width="2"/><line x1="54" y1="31" x2="54" y2="37" fill="none" stroke="#544f4b" stroke-miterlimit="10" stroke-width="2"/><line x1="10" y1="31" x2="10" y2="37" fill="none" stroke="#544f4b" stroke-miterlimit="10" stroke-width="2"/><path d="M39,51c0,3.87-3.13,6-7,6s-7-2.13-7-6" fill="none" stroke="#544f4b" stroke-miterlimit="10" stroke-width="2"/></g></svg>